/* XPM */
static char *Spray-Logo-Icon-16_xpm[] = {
/* width height num_colors chars_per_pixel */
"    16    16      256            2",
/* colors */
"`` c #f7fbfa",
"`. c #f0f4f3",
"`# c #f6f8f7",
"`a c #f0f2f1",
"`b c #ffffff",
"`c c #f4f4f4",
"`d c #ede9ea",
"`e c #f4f0f1",
"`f c #f4eff3",
"`g c #f9f7fa",
"`h c #fefcff",
"`i c #e6e6e8",
"`j c #f9fafe",
"`k c #f4f7fc",
"`l c #f8fbff",
"`m c #f8fcfb",
"`n c #f6faf9",
"`o c #e4e8e9",
"`p c #fbfcfe",
"`q c #e6e7eb",
"`r c #f7f6fb",
"`s c #fffeff",
"`t c #d4d3d8",
"`u c #dad7de",
"`v c #d7d6dc",
"`w c #faf9ff",
"`x c #fafbff",
"`y c #f9faff",
"`z c #fafdff",
"`A c #f6f9fe",
"`B c #f5f8fd",
"`C c #f4f8f9",
"`D c #fcffff",
"`E c #ecf0f3",
"`F c #f7faff",
"`G c #dcdeea",
"`H c #d1d3df",
"`I c #e5e9f5",
"`J c #f2f4ff",
"`K c #c7c9d6",
"`L c #757783",
"`M c #a9acb5",
"`N c #f6f9ff",
"`O c #fafeff",
"`P c #f8fcff",
"`Q c #f3f7fa",
"`R c #fbffff",
"`S c #f4f8ff",
"`T c #d1d7e5",
"`U c #c2c8d8",
"`V c #e8efff",
"`W c #c1c8db",
"`X c #949bae",
"`Y c #d9e0f3",
"`Z c #c6ccdc",
"`0 c #666c78",
"`1 c #979ba6",
"`2 c #f7fcff",
"`3 c #f6fafd",
"`4 c #eef2fb",
"`5 c #ecf2ff",
"`6 c #969db0",
"`7 c #c2cae1",
"`8 c #d4def9",
".` c #4f5a76",
".. c #38435f",
".# c #535d78",
".a c #a7afc6",
".b c #232a3c",
".c c #565c68",
".d c #f9feff",
".e c #f6fafb",
".f c #f5faff",
".g c #dee4f0",
".h c #9198a8",
".i c #5f677e",
".j c #c8d1ee",
".k c #d0dbfb",
".l c #6e7b9d",
".m c #3b4568",
".n c #374260",
".o c #333d58",
".p c #21293c",
".q c #4a525f",
".r c #f2f9ff",
".s c #f8fdff",
".t c #f5f9fa",
".u c #f5f9ff",
".v c #a6acba",
".w c #565d6f",
".x c #565d77",
".y c #586180",
".z c #c4ccf0",
".A c #e7f1ff",
".B c #f3fbff",
".C c #ebf4ff",
".D c #7b85a0",
".E c #363e53",
".F c #0f1724",
".G c #f7feff",
".H c #f5fafd",
".I c #f6fcfc",
".J c #9ba1af",
".K c #5d6275",
".L c #454b63",
".M c #4f5472",
".N c #4a5072",
".O c #4d5375",
".P c #585e80",
".Q c #757c99",
".R c #f1f7ff",
".S c #777e91",
".T c #292f3d",
".U c #f4f9fc",
".V c #f7fdfd",
".W c #f4fbff",
".X c #f8ffff",
".Y c #a6a9b8",
".Z c #6a6d7e",
".0 c #5a5c73",
".1 c #898aa6",
".2 c #767795",
".3 c #414260",
".4 c #4a4b69",
".5 c #333450",
".6 c #dcdef5",
".7 c #a5a8bb",
".8 c #585c68",
"#` c #f2fafc",
"#. c #f5fefd",
"## c #9193a2",
"#a c #333448",
"#b c #a4a2b8",
"#c c #f5f3ff",
"#d c #6c6a82",
"#e c #525068",
"#f c #7f7d93",
"#g c #f5f4ff",
"#h c #9ea0af",
"#i c #c7c9d5",
"#j c #f4f9ff",
"#k c #f4fcfe",
"#l c #f4fdfc",
"#m c #f5fcff",
"#n c #e6eaf5",
"#o c #d7d9e6",
"#p c #7d7c8c",
"#q c #545164",
"#r c #aaa7ba",
"#s c #fbf8ff",
"#t c #f3f0ff",
"#u c #b4b2c0",
"#v c #82828e",
"#w c #f3f8fc",
"#x c #f9ffff",
"#y c #f3fcfb",
"#z c #f1f4fd",
"#A c #f2f5fe",
"#B c #d4d4e0",
"#C c #c4c2cf",
"#D c #9492a0",
"#E c #444250",
"#F c #373543",
"#G c #858390",
"#H c #dfdde8",
"#I c #fefeff",
"#J c #f1faf9",
"#K c #e9ecf3",
"#L c #f0f3fc",
"#M c #f9f9ff",
"#N c #f7f7ff",
"#O c #62626e",
"#P c #3d3d49",
"#Q c #d7d7e1",
"#R c #bcbcc6",
"#S c #eaedf4",
"#T c #f2f6f9",
"#U c #f8fcfd",
"#V c #f8fefe",
"#W c #f9fcff",
"#X c #faffff",
"#Y c #f1f5fe",
"#Z c #6f737c",
"#0 c #373b44",
"#1 c #e5e9f2",
"#2 c #f0f5f9",
"#3 c #e6e9ee",
"#4 c #e7eef4",
"#5 c #ebf4f9",
"#6 c #77818a",
"#7 c #404a53",
"#8 c #f6ffff",
"a` c #f1faff",
"a. c #e0e8eb",
"a# c #ebeff2",
"aa c #f7fbfc",
"ab c #fafbfd",
"ac c #f9fafc",
"ad c #f9fdfe",
"ae c #f9fdff",
"af c #e7eff1",
"ag c #f6fdff",
"ah c #e1ecf0",
"ai c #f1fbff",
"aj c #85929a",
"ak c #4b5860",
"al c #f4ffff",
"am c #f5ffff",
"an c #f0f5f8",
"ao c #f8f9fb",
"ap c #000000",
"aq c #000000",
"ar c #000000",
"as c #000000",
"at c #000000",
"au c #000000",
"av c #000000",
"aw c #000000",
"ax c #000000",
"ay c #000000",
"az c #000000",
"aA c #000000",
"aB c #000000",
"aC c #000000",
"aD c #000000",
"aE c #000000",
"aF c #000000",
"aG c #000000",
"aH c #000000",
"aI c #000000",
"aJ c #000000",
"aK c #000000",
"aL c #000000",
"aM c #000000",
"aN c #000000",
"aO c #000000",
"aP c #000000",
"aQ c #000000",
"aR c #000000",
"aS c #000000",
"aT c #000000",
"aU c #000000",
"aV c #000000",
"aW c #000000",
"aX c #000000",
"aY c #000000",
"aZ c #000000",
"a0 c #000000",
"a1 c #000000",
"a2 c #000000",
"a3 c #000000",
"a4 c #000000",
"a5 c #000000",
"a6 c #000000",
"a7 c #000000",
"a8 c #000000",
/* pixels */
"```.`#`a`b`c`d`e`f`g`h`i`j`j`k`l",
"`m`n`o`p`q`r`s`t`u`v`w`x`y`z`A`B",
"`C`D`E`D`F`G`H`I`J`K`L`M`N`A`F`O",
"`P`Q`R`S`T`U`V`W`X`Y`Z`0`1`2`3`3",
"`z`A`4`5`6`7`8.`...#.a.b.c.d`O.e",
"`l.f.g.h.i.j.k.l.m.n.o.p.q.r.s.t",
".u.u.v.w.x.y.z.A.B.C.D.E.F.G.H.I",
"`P.u.J.K.L.M.N.O.P.Q.R.S.T.r.U.V",
".W.X.Y.Z.0.1.2.3.4.5.6.7.8.s#`#.",
".r.W`R###a#b#c#d#e#f#g#h#i#j#k#l",
"#m.r#n#o#p#q#r#s#t#s#u#v`D#w#x#y",
"`S`P#z#A#B#C#D#E#F#G#H#I`D`P.I#J",
"`F`z`F#K#L#M#N#O#P#Q#R#S`D#T#U#V",
"#W`A`D`A.s#X#Y#Z#0#1`R#2#3`D.e.e",
"`j`Q`Q`R#4#5.X#6#7#8a`a.`Ra#aaab",
"acadaeafagahaiajakala`am#wanaoab"
};
