/* XPM */
static char *Spray-Logo-Icon-32_xpm[] = {
/* width height num_colors chars_per_pixel */
"    32    32      256            2",
/* colors */
"`` c #0c163c",
"`. c #8c9294",
"`# c #44526c",
"`a c #c4cacc",
"`b c #e4e6dc",
"`c c #2c363c",
"`d c #64728c",
"`e c #a4aec4",
"`f c #343a6c",
"`g c #f4f6e4",
"`h c #5c6264",
"`i c #7c7a8c",
"`j c #d4dadc",
"`k c #eceae4",
"`l c #949e9c",
"`m c #44465c",
"`n c #bcbec4",
"`o c #344264",
"`p c #3c466c",
"`q c #242634",
"`r c #5c628c",
"`s c #4c528c",
"`t c #2c3654",
"`u c #6c769c",
"`v c #fcf6f4",
"`w c #3c4684",
"`x c #ccd6fc",
"`y c #7c8694",
"`z c #e4e2ec",
"`A c #ecf2e4",
"`B c #242a54",
"`C c #b4b6b4",
"`D c #d4daf4",
"`E c #8c9694",
"`F c #ccd2d4",
"`G c #e4eef4",
"`H c #9c9ec4",
"`I c #3c3e5c",
"`J c #646a94",
"`K c #545a5c",
"`L c #dce6f4",
"`M c #bcbedc",
"`N c #2c3e5c",
"`O c #8486a4",
"`P c #f4fefc",
"`Q c #74727c",
"`R c #acb6bc",
"`S c #ecf6fc",
"`T c #5c6a84",
"`U c #dce2dc",
"`V c #eceaf4",
"`W c #2c2e44",
"`X c #747e94",
"`Y c #4c4e8c",
"`Z c #848eac",
"`0 c #44427c",
"`1 c #4c4e7c",
"`2 c #5c5e84",
"`3 c #343654",
"`4 c #fcfeec",
"`5 c #a4a6c4",
"`6 c #1c2254",
"`7 c #cccae4",
"`8 c #a4b2cc",
".` c #3c426c",
".. c #dcdadc",
".# c #3c4a64",
".a c #444e74",
".b c #444e94",
".c c #ecf2f4",
".d c #2c3254",
".e c #d4d6d4",
".f c #e4e6f4",
".g c #1c1e38",
".h c #4c5a7c",
".i c #5c627e",
".j c #acaab4",
".k c #c4c6c8",
".l c #3c4254",
".m c #242646",
".n c #5c62ac",
".o c #444684",
".p c #b4b6cc",
".q c #d4e2fc",
".r c #8c96a4",
".s c #6c6aa4",
".t c #8c8aac",
".u c #f4f6f9",
".v c #343664",
".w c #9ca6cc",
".x c #4c5264",
".y c #ccced0",
".z c #343e4c",
".A c #7c82a4",
".B c #f4eeec",
".C c #9ca6b4",
".D c #444674",
".E c #646294",
".F c #545294",
".G c #74769c",
".H c #fcf6fc",
".I c #8c8a94",
".J c #545e6c",
".K c #bcc6e4",
".L c #848ab4",
".M c #747a7c",
".N c #8c8ea4",
".O c #e4e6ec",
".P c #343647",
".Q c #6c7289",
".R c #343a7c",
".S c #847e8c",
".T c #d4daec",
".U c #eceeea",
".V c #949eb4",
".W c #5c629c",
".X c #84868c",
".Y c #2c2e54",
".Z c #dcdef4",
".0 c #ccd2e4",
".1 c #848aa7",
".2 c #eceef6",
".3 c #747ea4",
".4 c #8c92b0",
".5 c #343a57",
".6 c #acaecc",
".7 c #f4f2f5",
".8 c #e4eaf8",
"#` c #1c2238",
"#. c #74768c",
"## c #141a2c",
"#a c #646e74",
"#b c #5c5e9c",
"#c c #3c4284",
"#d c #d4d6ec",
"#e c #343e54",
"#f c #acaebc",
"#g c #9ca2a4",
"#h c #4c4a64",
"#i c #94969c",
"#j c #64667c",
"#k c #bcbad4",
"#l c #949aa9",
"#m c #a4a6cc",
"#n c #3c3e6c",
"#o c #7c7e94",
"#p c #bcc2d4",
"#q c #54566c",
"#r c #bcc2ec",
"#s c #dcdaec",
"#t c #3c4264",
"#u c #444694",
"#v c #444a7c",
"#w c #54569c",
"#x c #747aac",
"#y c #84869c",
"#z c #646a84",
"#A c #f4f2e8",
"#B c #dce2f4",
"#C c #5c6274",
"#D c #acb6cc",
"#E c #fcfefc",
"#F c #2c3264",
"#G c #d4d6e4",
"#H c #c4c6d4",
"#I c #5c5e6c",
"#J c #c4c6e4",
"#K c #747a8c",
"#L c #9c9eb4",
"#M c #343e64",
"#N c #445674",
"#O c #c4cecc",
"#P c #f4faec",
"#Q c #7c7e84",
"#R c #444a64",
"#S c #242a3c",
"#T c #5c6694",
"#U c #fcfaf3",
"#V c #242e54",
"#W c #b4bab8",
"#X c #d4defc",
"#Y c #ccd6dc",
"#Z c #e4f2fc",
"#0 c #9ca2bc",
"#1 c #646e94",
"#2 c #dceafc",
"#3 c #747674",
"#4 c #2c324c",
"#5 c #a4aabc",
"#6 c #242a46",
"#7 c #444a88",
"#8 c #6c6ea1",
"a` c #f4fafa",
"a. c #4c566c",
"a# c #444a71",
"aa c #54568f",
"ab c #747aa0",
"ac c #343a44",
"ad c #6c768c",
"ae c #343e84",
"af c #7482ac",
"ag c #acb2c4",
"ah c #a4aad0",
"ai c #344664",
"aj c #3c4a84",
"ak c #bcc2dc",
"al c #ecfafc",
"am c #748294",
"an c #8492ac",
"ao c #cccee4",
"ap c #3c4654",
"aq c #b4bacc",
"ar c #343a64",
"as c #fcfafc",
"at c #8c92a4",
"au c #e4eaec",
"av c #d4deec",
"aw c #5c669c",
"ax c #ccd6e4",
"ay c #acb2cc",
"az c #949a9c",
"aA c #545a6c",
"aB c #dcdeec",
"aC c #3c4664",
"aD c #848a9c",
"aE c #8c929c",
"aF c #445274",
"aG c #c4cad4",
"aH c #e4e6e4",
"aI c #f4f6ec",
"aJ c #5c626c",
"aK c #d4dae4",
"aL c #eceaec",
"aM c #bcbecc",
"aN c #2c365c",
"aO c #242a5c",
"aP c #d4dafc",
"aQ c #e4eefc",
"aR c #3c3e64",
"aS c #646a9c",
"aT c #dce6fc",
"aU c #8486ac",
"aV c #dce2e4",
"aW c #eceafc",
"aX c #2c2e4c",
"aY c #4c4e94",
"aZ c #5c5e8c",
"a0 c #34365c",
"a1 c #fcfef4",
"a2 c #a4b2d4",
"a3 c #3c4274",
"a4 c #444e7c",
"a5 c #ecf2fc",
"a6 c #2c325c",
"a7 c #d4d6dc",
"a8 c #e4e6fc",
/* pixels */
"#E#E#E#Ea1a1a1#Uas#E#E.7#E.O.u.k`b#U#A`4aI#U.u#E#E.uas#E#E#E#E#E",
"#E#E#Ea1a1a1a1asas#Eas.H.7aH.B#E.Ba1#Ua1a1#E#E.u#E.2.u#E#Eas#Eas",
"#E#E#E#Ea1a1#E#Uas.H.7#E#EasaK.O#E.O.e#U#E`a`F#E#E.caH#E#E#E#E#E",
"#E#E#E#E#E#E#E#E`v#E#E#E.7aB`zaB.ja7.7#E.u#E#E#E.2#E.u#E#E#E#E#E",
"#E#E#E#E#Ea1#Easasas.u.u.7.k#G#fa7.7.yaE.Mag`naG#E#E`S#E#E#E#E#E",
"#E#E#E#E#Eas#Eas#E#E`k`U#Y#g.7.ua`a`a`.2.r#a.x#y.TaQ.7#E#E#Eas#E",
"#E#E#E#E#Easasa`#E.2#W.y#E.2#Ea5#E.8`La`#Eax#z.5#j#5.u#E#E#E#E#E",
"#E#E#E#E#Ea`as.u#E.U`E`l`S#E#p.4.i.i#o#5aQa`#r.A#6.xaM#E#E#E#E#E",
"#E#E#E#Eas#E`P.u`P#laq`P.c.8aD#R#t`0ar.aah`S#r.G.Y`3#p#E#E#E#E#E",
"#E#E#E#E#E.8a5a5aqa.`y`S`Pax.Q#4`1`s.`#Fa3#x.a#M#V#VaE#E#E#E#E#E",
"#E#E#E#E.u#dakah#K`d.6a`a5av.V#R`B#v.v`f#M#F#var.m.m#h#E#E#E#E#E",
"#E#E#E#E#G`MaU`2`r#M.A#Z`Sa5aT.1`u`r`o`p#V.D`6a6a6`t#`#E#E#E#E#E",
"#E#E#E#Eao.6ab`r#7aw.`#1#X`Sa5#Z#B`P#Z#X.w#t#M``.v`I###E#E#E#E#E",
"#E#E#E#E#s.4aS#8#c#b.o`f`Ja2a5`S`Pala``PaT#X`ua6`BaX.g#E#E#E#E#E",
"#E#E#E#E#JaU.FaY.n.baj`w#v#e.h.i.Qam.1`eaT`PaP.Ga0.m`W#E#E#E#E#E",
"#E#E#E#E#k.waS#w.b.RaY`w`o#M.aaC`o.5`t`t.Qa5.2#r#C`q.P#E#E#E#E#E",
"#E#E#E#E#p`5#8.F.o#c`w.Waf.h`N`oaNa#`6`3.5#Ja`a8#y`q`Q#E#E#E#E#E",
"#E#E#E#E#d#k.t#8aY.RaaaQaT`Z.#ai.v.`a0aN#4.8.Z.7#o.P`Vas#E#Eas#E",
"#E#E#E#Easa8`H`r`0#7aa`x`S.q`T.#a0#6aR`3#ja`#E`z#I.I#Eas#E#E#E#E",
"#E#E#E#E#Ea5`5`2aZ`J#t.3alalaQ`8an.1`X.pal.ua`aJ#Q.B`V#E#E#E#E#E",
"#E#E#E#E.7.2.0.p.1`O.d#Radal`PaQa`a8a`al#E#B.X`K.y#E#E#E#E#E#E#E",
"#E#E#E#Ea`#E#E.u#l.Na.#.#l#C#D.8aQ`S.8aKaK`h#3a1.Bas#Eas#E#E#E#E",
"#E#Ea1#Ea1#E#E.7`D#H#K#5.8.r`m#S.x.Jap`c.e`Ua`.7.7#E.B#E#E#E#E#E",
"#E#E#E#E#E.uas#E.O.f#i.O#Eax#o#6ac#6`caEa`.c#E#U#E.u#E#E#E#E#E#E",
"#E#E#E#Ea1#Eas.c.2#E`P.u#Ga5.T#j.m.zaAa5aqaz#E#E#U#E#Eas#E#E#E#E",
"#E#E#E#E#E#Eas.u.7a`.7a`#Bas.Z#I#`#V#.a``a`C#Aas#U#E#E#E#E#E#E#E",
"#E#E#E#E#E#E#Eas#E#Ea`#E.2#E.8.G`t.g`y`S.7`S.2aH`v#Eas#E#E#E#E#E",
"#E#E#E#E#Eas#E#E#Easa1#E.Oa5.7.4.5.m#L#Eas#E.B.uaIas#E#E#E#E#E#E",
"#E#E#E#E#Eas#E#E#E#U#Ea1au.2.7#L`I#Vaga`a`.u.7a1`v#U#E#E#E#E#E#E",
"#E#E#E#E#Eas#E#E#Ea1a1`Pa1a`a5#l`I`qay.7#E#E#EaI`v#U#E#E#E#E#E#E",
"#E#E#E#E#Eas#E#E#U`P#P`A#E#Ea5.4`m#6.0`Pasa`a1a1`v#E#E#E#E#E#E#E",
"#E#E#E#E#Eas#E#Ea`a1`4.U`P#E.u.C.Q.z`z`P.u#E#U#Ua1a1a1#E#E#E#E#E"
};
