/* XPM */
static char *Spray-Logo-Icon-64_xpm[] = {
/* width height num_colors chars_per_pixel */
"    64    64      256            2",
/* colors */
"`` c #101230",
"`. c #848a90",
"`# c #444e68",
"`a c #c4c7cb",
"`b c #24324f",
"`c c #647189",
"`d c #243278",
"`e c #d4e6fc",
"`f c #9caabc",
"`g c #5c5a5c",
"`h c #6471a7",
"`i c #3c4e94",
"`j c #949a9c",
"`k c #ccd6e1",
"`l c #3c3d77",
"`m c #3c4254",
"`n c #242531",
"`o c #eceaeb",
"`p c #b4b3b7",
"`q c #3c3848",
"`r c #1c245d",
"`s c #7c7e84",
"`t c #ecfaec",
"`u c #2c3e7b",
"`v c #243261",
"`w c #4c5a7c",
"`x c #bcc6e7",
"`y c #8c9ac4",
"`z c #7c8abc",
"`A c #4c5e9c",
"`B c #dcdcdd",
"`C c #74726c",
"`D c #3c487a",
"`E c #444f7b",
"`F c #7480a7",
"`G c #b4bec9",
"`H c #5c6090",
"`I c #2c3e60",
"`J c #4c5090",
"`K c #1c2249",
"`L c #1c2c5c",
"`M c #3c4890",
"`N c #a4acd7",
"`O c #343979",
"`P c #fcfafb",
"`Q c #545578",
"`R c #8c8d99",
"`S c #ecefeb",
"`T c #cccdd2",
"`U c #34408e",
"`V c #ccd0e6",
"`W c #9ca0c0",
"`X c #747ebc",
"`Y c #242c49",
"`Z c #acb7c9",
"`0 c #9ca2b2",
"`1 c #ccd6fc",
"`2 c #6c778c",
"`3 c #b4b8d8",
"`4 c #34345f",
"`5 c #dcdcf6",
"`6 c #8486ae",
"`7 c #e4eefa",
"`8 c #5c667c",
".` c #344269",
".. c #8c94b6",
".# c #747490",
".a c #445674",
".b c #2c2e60",
".c c #acacac",
".d c #b4bed4",
".e c #ecf1f9",
".f c #0c1a4c",
".g c #2c3a7a",
".h c #44579f",
".i c #848590",
".j c #f4fefc",
".k c #7c86aa",
".l c #5c678c",
".m c #a3a6c2",
".n c #34374a",
".o c #647199",
".p c #e4e7e9",
".q c #6476ac",
".r c #4c4a7c",
".s c #444862",
".t c #949caf",
".u c #ecf6fb",
".v c #34467c",
".w c #c4cee4",
".x c #444778",
".y c #4c5077",
".z c #4c5890",
".A c #242e76",
".B c #8c93a0",
".C c #544e54",
".D c #c4cedc",
".E c #3c4e9c",
".F c #2c3460",
".G c #4c5ea4",
".H c #dce2e7",
".I c #7c81a9",
".J c #44498d",
".K c #747a94",
".L c #bcc8d8",
".M c #2b3686",
".N c #5c5e74",
".O c #3c428f",
".P c #b4bac8",
".Q c #3c3d5f",
".R c #78869c",
".S c #343f7d",
".T c #bcc8f8",
".U c #343b69",
".V c #24264d",
".W c #242c65",
".X c #2c2d50",
".Y c #d4dff9",
".Z c #c4c2da",
".0 c #5c6aac",
".1 c #7c8ca8",
".2 c #a4abc8",
".3 c #d4dedc",
".4 c #d1d2d6",
".5 c #9496b6",
".6 c #f4f2f7",
".7 c #646996",
".8 c #e4e8f8",
"#` c #7479a8",
"#. c #acbaf4",
"## c #141e44",
"#a c #8492d4",
"#b c #292b3c",
"#c c #acadc8",
"#d c #6c6a74",
"#e c #1c1e4f",
"#f c #787a84",
"#g c #34398d",
"#h c #4c566c",
"#i c #2c3a54",
"#j c #3f3e54",
"#k c #94a2c4",
"#l c #3c4a68",
"#m c #5466b4",
"#n c #5c627f",
"#o c #0c1644",
"#p c #b7b6c7",
"#q c #747e98",
"#r c #8c8ea9",
"#s c #ccd2f7",
"#t c #6c76bc",
"#u c #4c59a0",
"#v c #dee2fa",
"#w c #5c6268",
"#x c #3c427d",
"#y c #fcfefc",
"#z c #34468f",
"#A c #a2a6ce",
"#B c #545664",
"#C c #eceaf6",
"#D c #747484",
"#E c #4c5069",
"#F c #2c3351",
"#G c #6c7084",
"#H c #dce8f9",
"#I c #d4d7de",
"#J c #242662",
"#K c #545b7c",
"#L c #949cc2",
"#M c #848cb9",
"#N c #546097",
"#O c #e4dee4",
"#P c #bcbfc4",
"#Q c #64628c",
"#R c #a4a2bf",
"#S c #7c82cc",
"#T c #a4a4af",
"#U c #d4d8f0",
"#V c #bcbad4",
"#W c #646981",
"#X c #bcc1da",
"#Y c #141b57",
"#Z c #a4b2cc",
"#0 c #acb2c4",
"#1 c #2c3a85",
"#2 c #a4aab4",
"#3 c #444248",
"#4 c #3c4267",
"#5 c #4c567c",
"#6 c #e4e2e5",
"#7 c #7c7a94",
"#8 c #bcbac1",
"a` c #1c1e40",
"a. c #64627f",
"a# c #2c3478",
"aa c #445091",
"ab c #9c9ba1",
"ac c #f4f7eb",
"ad c #c4c8e6",
"ae c #948e94",
"af c #f4f0ec",
"ag c #d4d2e4",
"ah c #6c7094",
"ai c #6c77a7",
"aj c #9c9dad",
"ak c #f4f8fa",
"al c #54598c",
"am c #44519f",
"an c #5461a8",
"ao c #c4c9db",
"ap c #c4caf4",
"aq c #848ba7",
"ar c #7c8098",
"as c #848b9c",
"at c #646eb4",
"au c #3c3e84",
"av c #24223c",
"aw c #3c3a54",
"ax c #1c266c",
"ay c #24346c",
"az c #dcdaec",
"aA c #3c4884",
"aB c #445084",
"aC c #7482b4",
"aD c #5c629c",
"aE c #2c3b6c",
"aF c #4c529c",
"aG c #1c2554",
"aH c #1c2a6c",
"aI c #3c499c",
"aJ c #343a84",
"aK c #545684",
"aL c #cccadc",
"aM c #34429c",
"aN c #9ca2cc",
"aO c #242b54",
"aP c #6c789c",
"aQ c #b4b8e4",
"aR c #34346c",
"aS c #8c94c4",
"aT c #74749c",
"aU c #2c2e6c",
"aV c #84869c",
"aW c #5c689c",
"aX c #343854",
"aY c #44476c",
"aZ c #c4d2f4",
"a0 c #444a84",
"a1 c #4c5084",
"a2 c #8c94ac",
"a3 c #545264",
"a4 c #2c336c",
"a5 c #7c82b4",
"a6 c #444a9c",
"a7 c #5c5a84",
"a8 c #3c3e6c",
/* pixels */
"#y#y#y#y#y#y#y#y#y#y#y#y#y#y#y#y#y#y#y#y#y#y#y#y#y#y#y`P#y#y`P.c`p`P#y`P#y#y#yac#yac`P#y#yacac#y#y#y#y`P.6#y#y#y#y#y#y#y#y#y#y#y",
"#y#y#y#y#y#y#y#y#y#y#y#y#y#y`P#y#y#y#y#y#y#y#y#y#y#y`P`B`B`Sak`T#8.6#y`P`Pac#y#y#y#y#yacac#y#y#y#yac`P`P#y`P`P#y#y#y#y#y#y#y#y#y",
"#y#y#y#y#y#y#y#y#y#y#y#y#y#y#y#y#y#y#y#y#y#y#y#y#y#y.6.4`T.6#y#y#6#y#yac#y#y#yacacak`P`P#y#yacacaf#y#yaf#6#y#y#y#y#y#y#y#y#y#y#y",
"#y#y#y#y#y#y#y#y#y#y#y#y#y#y`P#y#y#y#y#y#y#y#y#y`P#y`P`o`o#yafak#y`P.6`P#y#yac#y#y#y#y#y#y#y#y#y#y`Pacak#y`P#y#y#y#y#y#y#y#y#y#y",
"#y#y#y#y#y#y#y#y#y#y#y#y#y#y#y#y#y#y#y#y#y#y#y#y#y#y#y#y`P#yag#I#6.6#y#yac`P#y`P.6#y`S`a`a.e#y`Sac#yac#y`C`B`P#y#y#y#y#y#y#y#y#y",
"#y#y#y#y#y#y#y#y#y#y#y#y#y#y`P#y#y#y#y#y#y#y#y#y#y#y`P`S#6.p`oaf#y`P`S#P.c`B#y#y`P#y.eag#Iac#y.j#y#yacaf#y#y#y#y#y#y#y#y#y#y#y#y",
"#y#y#y#y#y#y#y#y#y#y#y#y#y#y#y#y#y#y#y#y#y#y#y#y#y`P.6az`T`B`P#y#C#8ag.6.p#I`Bakak#C`o.eac.jac#y`S#y#y#6#y#y#y#y#y#y#y#y#y#y#y#y",
"#y#y#y#y#y#y#y#y#y#y#y#y#y#y#y#y#y#y#y#y#y#y#y#y#y#y#y.p#I`Bakag.i`R`T#yakakak.e#yakak.j#y#y.jac#yac#y#yac`P#y#y#y#y#y#y#y#y#y#y",
"#y#y#y#y#y#y#y#y#y#y#y#y#y#y#y#y`P#y`Pac#yafaf#y#y`S#y`P`o.6#I`s#G`aak#I`p`V#vaLaj`0aVakak.8.e.uak#y#yacak#y#y#y#y#y#y#y#y#y#y#y",
"#y#y#y#y#y#y#y#y#y#y#y#y#y#y#y#y#yac#y#yacak#yak`Sag#I#P#T.4.6#yak#y#y.e`5.4`j#E#j.s#D#XaV#v#Aaq#y.u#y.j#yak#y#y#y#y#y#y#y#y#y#y",
"#y#y#y#y#y#y#y#y#y#y#y#y#y#y#y#y#y#yakacak#y.p.e#y.p`R#w.cakak#y#y.j#y#y.j.jak.e.H.K.n.saY.7#M#sakak#y`Sak#y#y#y#y#y#y#y#y#y#y#y",
"#y#y#y#y#y#y#y#y#y#y#y#y#y#y#y#yak`P.jak#yak`j`.`Tak#y#y`S#y#yak.jak.j#y.jak.e.u.u#I`x`Q.xa8aU`lajak.8ajakak#y#y#y#y#y#y#y#y#y#y",
"#y#y#y#y#y#y#y#y#y#y#y#y#y#y#y#y#y.p#yakakak.p.p.p#yak.6#yak.H#y#y.jak.uak#y.jakak.j.8`V.x`4.baR.X.Iakakak#y`P#y#y#y#y#y#y#y#y#y",
"#y#y#y#y#y#y#y#y#y#y#y#y#y#y#y#y#y#C#yak`Paoabae.j#C.e#y.u`P#yak.e#y.jak.uakak#y`7.j.j.u`5a8aK#JaY.Q#G`W#C.e#y#y#y#y#y#y#y#y#y#y",
"#y#y#y#y#y#y#y#y#y#y#y#y`P#y#y#yakak#yak.H.B#w#f`a#y#yak#y.e.8#X#r.I.7ahaq.mao.u.j.j.uak.uad#`.I#eaO.XaXaz#D#y#y#y#y#y#y#y#y#y#y",
"#y#y#y#y#y#y#y#y#y#y`P#y#y#y#y#y#y#yak.eaj#d.t.6ak.j.u.u#y#Uas.Qa0`l`l.x`l`4#h.Bak`7.j#y`7#vaN.Ia8`4aOaX`V#y#y#y#y#y#y#y#y#y#y#y",
"#y#y#y#y#y#y#y#y#yaf#y#y#yak#y#y.j.uak`W#R#vaL.8#yak.j.u.D..`AaBaJaJau`M`l.U#4`#`2.j.u.u`7#v#AaB.F.UaO.b#Xak#y#y#y#y#y#y#y#y#y#y",
"#y#y#y#y#y#y#y#y#y#y.6.e#y.j.u.j.u`7ad.2.##X.6ak.u`t.j`t`Z.q.`#1aMaMaM`U.S`O.g.U`m.1ak.u.uaS`N`D.F.W.F.W#Mak#y#y#y#y#y#y#y#y#y#y",
"#y#y#y#y#y#y#y#y#yak#y#yak.j#y`7.j`7.K#q`Q`Qaoak#y.j.j.u#Z`F.S`M`MaM`U`U`U.O.Sa#.U#x.l`1`F`E`D.W`vaGa4.WaY.8.j#y#y#y#y#y#y#y#y#y",
"#y#y#y#y#y#y#y#y#y`P#y#y`G.H`k.j.u.....K`Q.K`V`Pak.j.jak.2aPa#.S`U#1`U#1#g`U`U.M.Sa4.v`D`E`L#l`L`v`La4aOaG`3#y#y#y#y#y#y#y#y#y#y",
"#y#y#y#y#y#y#y#y#y#y.6.e.j.e.t`Z.Y#k`y`H`E#L`P.u.u#y.j#y`Z`6`D.J#z`MaIaM#g.M#g.M.Aa#.g.z`haE`vayaya#a4#J.V.##y#y#y#y#y#y#y#y#y#y",
"#y#y#y#y#y#y#y#y#y#y.e.uar.t#H`F.q.o.q`E#KaQ#Uak#yakak#y#U#c`H`laE`u.``U#1.M.M#g.O`MaJay.gay`u`v`L`Oax#J.F#4#y#y#y#y#y#y#y#y#y#y",
"#y#y#y#y#y#y#y#y#y#y#yadasak#M.kaW#NaB#N`D`H#s.eak.uak#y.u`VaT.U#h#l.`aAaAaJ.MaJa#.AaH.S.Say`vaHaHay#Jax.Xav#y#y#y#y#y#y#y#y#y#y",
"#y#y#y#y#y#y#y#y#y.e.Z.B#H#M.I.a`u`A`A`M.zaA`N.eakak#y#y`Pak#vag#k.R.o.o.o#5`laR.b`O.U`raEaHay`da#`raUaU#e`K#y#y#y#y#y#y#y#y#y#y",
"#y#y#y#y#y#y#y#y#yak.Bahap`F.7aD#m`i#u#uamaa#x.7#Xak.j.u#y#yak#y.j.j.u.eak.j.8adaq#haO`E.V.S#J#Yax.A.A.W#e`4#y#y#y#y#y#y#y#y#y#y",
"#y#y#y#y#y#y#y#y`P#y`V...I.kat#uan.G#m.E.Oaa#x`E`F.w.e.e.j.j`S#y.j.u.j.j.jakak#y#y.8.m.s.F#e#Jau.Aa#.AaU#JaX.j#y#y#y#y#y#y#y#y#y",
"#y#y#y#y#y#y#y#y#yak.d`5`N.0`X.0.h.han#zaM#u`M#x.Fah.L`7.u.u.jak.u.j#yakakakak.e.j#y#y`V#Q`laUaU#eax#Y#J.VaO#y#y#y#y#y#y#y#y#y#y",
"#y#y#y#y#y#y#y#y#y#Cad..#``hal#m.ham.h.Ea6am`M`MaB.v.``cad.j.u.uak.u.eak#y#y#y#y#y`Sak#y.6a7#e.x#J.gaU#JaO.V#y#y#y#y#y#y#y#y#y#y",
"#y#y#y#y#y#y#y#y#y#y#U.K.a#t.zan.Gam.ham.EaI`U`U.S.S#5aB`L`IaP..`W`x#Uapad.8akakak#yakakak`5#7`l`r.Wa#.W#J.V.j#y#y#y#y#y#y#y#y#y",
"#y#y#y#y#y#y#y#y#y.8.2aQ`D.z`M.Gamam.E.E.E.E`MaM#zaA.g.SaB`D.`.S`Da4.b.FaO`K#EaV#I.8.e#y.H.j#U...`.f`raG#e`n#y#y#y#y#y#y#y#y#y#y",
"#y#y#y#y#y#y#y#y#yakar.Y`HaA.qam`iaa`i#z`MaIaI`M.EaM#z#z.g#1.S#1a#.g.S.SaRa4.baO#E`0#y.e.jak#v.t#L.W.W.baO#F#y#y#y#y#y#y#y#y#y#y",
"#y#y#y#y#y#y#y#y#y#r`2#s#L`zaa#u#u.h`Mam`M`U#z#z.g.S`U.S`M`U#1#1.S.Ma#aU.Ma#aR.U.V#E.w.jakak.j#Z#XaG#YaO.XaX#y#y#y#y#y#y#y#y#y#y",
"#y#y#y#y#y#y#y#y#y#C#I.m.Y#M`Maaaa#u`i.Samam.W`d.`.vaEaA.v.g#1.M#1#1`U`d.A.Aa4.F.F#F`sak.jak#y.8ad.y.V.Vaw#r#y#y#y#y#y#y#y#y#y#y",
"#y#y#y#y#y#y#y#y#y#y.i.R.YaiaD#N`M.Sam`U`U`Oa##M.TaZaPaEaB`iay#z`u`d.A#1`Ua#.Wa4aX.F.tak.8#y.e.6`xa7`4`Y`n#v#y#y#y#y#y#y#y#y#y#y",
"#y#y#y#y#y#y#y#y#y#y#p#W.2alaiaa`M`Uamam.Jay#`.Y#H.j#H.1`bay.J.A`d#1.Maxaxa#a4`r###F#qak.u#yak.8aj.5``aw#Vak`P#y#y#y#y#y#y#y#y#y",
"#y#y#y#y#y#y#y#y#y#yak.j.e`7aC.Tatam.O`U.J.Wap.j.j.j#H`f#5.U.Sa#.g.ga#aJ`u`OaE.F#i#las.u#y.u.j.8.K.5avaw`P.8#y#y#y#y#y#y#y#y#y#y",
"#y#y#y#y#y#y#y#y#y#yak.e`x#n#Maaama6.MaJ`M`O`N#v.u.u.j`7a2`4.V.r.Sa#ay.W.W.W.W`b`L#h`k.j.j.u.u.e.m#Wa`aj.6ak#y#y#y#y#y#y#y#y#y#y",
"#y#y#y#y#y#y#y#y#yak#y.j.8#MaPa0a#aIa6`M#x`DaK`x.u#y.u#y.e#R`Q.baG.U`D.S`v`v.F`b`#.B.j.j.j.j.j`k#G.n.n#C`P.e`P#y#y#y#y#y#y#y#y#y",
"#y#y#y#y#y#y#y#y#y#y.8ak#v`5#Xa5alamataFa#a0.U`W.u.u.j#y.6ak`5#7.y#i`Y#F`Y`Y#ha2.D.j.j.u.u.u.8`.`n#d.e#y`P#y#y#y#y#y#y#y#y#y#y#y",
"#y#y#y#y#y#y#y#y#y`P#yak.Y`caraN.q`M#a#taF#x#x.`.2ak.j.e#y`P.6`P.u.Y#Xao#U#H.e#y.jak.j.jakak.B#b#Eag#y#yak#y#y#y#y#y#y#y#y#y#y#y",
"#y#y#y#y#y#y#y#y#y#y.e#y#I#X.e.k.oai`z#.#S.Saaa4#K`3ak.jakak`Pakak.u#y.j.j`P.e#y.u#y`S.6#yaj`n`q.B`S#yak`P#y#y#y#y#y#y#y#y#y#y#y",
"#y#y#y#y#y#y#y#y#y#y`P#y#yak#n#v`e.o.zaW`Maa.J`O`O.y`f.eakak.uak#yakakak.j.jak#y#y.e`Pak#7.n#j.Z`o#y.eak#y#y#y#y#y#y#y#y#y#y#y#y",
"#y#y#y#y#y#y#y#y#y`P`P.pak.jakak.Y.LaZ`z`DauaU`Ja5..#K#h#P.jak#y.eakakak.6.6#y#yak#y#I.C`n.Cag.6#y#y.6#y#y`P#y#y#y#y#y#y#y#y#y#y",
"#y#y#y#y#y#y#y#y#y`P#y#y#y#yak.u.j.t.RaQaS#x#xaW#saN#Xar#F`c#c.D.j#yak.j#yak.e`a#8`P#8#3#daf`P`Pafak#y#y`P`P#y#y#y#y#y#y#y#y#y#y",
"#y#y#y#y#y#y#y#y#y#yak#y.e`P#6#y#y`0#c#C#M.7aQ#A`x.8.d#Z.N``.s.X#F#K#W#n`#aw#j`n#Bak`aab.6aL`P.6`P#y#y#yak`P#y#y#y#y#y#y#y#y#y#y",
"#y#y#y#y#y#y#y#y#y`Pakafak`o#y`P`P`oag.e`5#G#Q.Yak.j#Har.s#4`K.U.W#i.W.Fa8.U#F`Y#G#y`P`o`P`P.6#y#y#y`P`P`P#y#y#y#y#y#y#y#y#y#y#y",
"#y#y#y#y#y#y#y#y#y`P`P#y`P#y.p#y`P#p#8az.Z#D#n.Pak.e.j`V.maTaRa4aRa#ax`r`r`K.F#q#Pakak`P#y#y`P`o.6`Pak#y#y#y#y#y#y#y#y#y#y#y#y#y",
"#y#y#y#y#y#y#y#y#y`P#y`S#y#y#y#y`P`P.6`P.6aL.4ak.j.j.eak.wah.r#J.WaHaUa4a4.W#W.8.jak#y#y`S`Pak#y#y#yak#y#y`P#y#y#y#y#y#y#y#y#y#y",
"#y#y#y#y#y#y#y#y#y#y#y`P`P#y#yac`P#y#y`P`P`P#y#y#y`S#y#y.8#v#A`H#Y.AaR`ra``m.2.eak.6`5#y#y.6#y#y#y#y#y#y#y#y#y#y#y#y#y#y#y#y#y#y",
"#y#y#y#y#y#y#y#y#y#y#y#y#y#y#yaf.p.6#y#y#y#y#y`P#6`a.H#y#y.e.m#QaU.W.WaO#F#W`5`P#C.i#3#T`P`P#y#y#y#y#y#y#y#y#y#y#y#y#y#y#y#y#y#y",
"#y#y#y#y#y#y#y#y#y#y#y#y`P`P.p.4`Baf#y#y#y#y#yak#C`a.4.e#y.6`WaY#J#J`r.V.X#G.8#y.8ae`g#T`P#y#yaf`P#y#y#y#y#y#y#y#y#y#y#y#y#y#y#y",
"#y#y#y#y#y#y#y#y#y#y#y#y#y#y#yaf`o`P#y#y`P#y#y`P`Pak.j#yak.e#c.x.W.W.W.b#F.#ak`P`P#y`P`P`P.6`Paf#y#y#y#y#y#y#y#y#y#y#y#y#y#y#y#y",
"#y#y#y#y#y#y#y#y#y#y#y#y`P#y#y#y#y#y#y#y`P`P#y#yak#y#yakak#y#V`QaR#JaOaOaXaq#yak#y.6.6`P#y#C.6`P#y`P#y#y#y#y#y#y#y#y#y#y#y#y#y#y",
"#y#y#y#y#y#y#y#y#y#y#y#y`P.6.6`o#y#y`P#y#y#y`P#y#y#y.6ak#yak.Z#`.SaG#Ja``Yasakak`P.6#y#y#O`p`a`P`P#y#y#y#y#y#y#y#y#y#y#y#y#y#y#y",
"#y#y#y#y#y#y#y#y#y#y#y#y#y#y#y#y#y`P#y#y#y#y#y#y#y#yak#y#y.8`V.m.y`r.FaG.n.5.6#y#y.6af`P#y`P.6#y#y#y#y#y#y#y#y#y#y#y#y#y#y#y#y#y",
"#y#y#y#y#y#y#y#y#y`P#y#y#y#y#y`P`P#y#y#y`P#y#y#y#y.p#P.3#y#y#U#LalaG.W`K#E.Pakak#y`P`P`P`P#y`P#y`P#y#y#y#y#y#y#y#y#y#y#y#y#y#y#y",
"#y#y#y#y#y#y#y#y#y#y#y#y#y#y#y#y#y#y`P#y#y#y#y#y#y.p.4`Sacak.8#r.7.VaOa`#W.j.6.j`P#y#y#y`P#y#y`Paf`o`P`P#y#y#y#y#y#y#y#y#y#y#y#y",
"#y#y#y#y#y#y#y#y#y#y#y#y#y#y#y#y#y#y#y#y#y#y#y`P#y#y`S#y#y#y`5.m`X#Y##aX#haoak#y`P#y#y#y`P#y#y`P.6`S`P`P#y#y#y#y#y#y#y#y#y#y#y#y",
"#y#y#y#y#y#y#y#y#y#y#y#y#y#y#y#y#y#y`P`P#y#y#y#y`P#y.j#y.jak.P.m`6aG##aX`m`Z#yak#y#y#y#y#y#y#y#y`P.6#y`P#y#y#y#y#y#y#y#y#y#y#y#y",
"#y#y#y#y#y#y#y#y#y#y#y#y#y#y#y#y#y#y#y#y#y#y#y#y#y#yac#y#y`P.m.ta5aO###F.N#I#yak`P#y#y#y`P#y#y#y`P`P#y#y#y#y#y#y#y#y#y#y#y#y#y#y",
"#y#y#y#y#y#y#y#y#y#y#y#y#y#y#y#y#y#y#y#y#y`Pacafaf#yac.j#y#y#T.5.k#o`K#F.K.j.6#y#y#y#y#y#y#y#y`P#y`P#y#y#y#y#y#y#y#y#y#y#y#y#y#y",
"#y#y#y#y#y#y#y#y#y#y#y#y#y#y#y#y#y`P#y#y`P.6`S`o.pacac#y.jak#X`W.5aGaO`Y`8.jak#y#y#y#y#y`P#y#y#y#y#y#y#y#y#y#y#y#y#y#y#y#y#y#y#y",
"#y#y#y#y#y#y#y#y#y#y#y#y#y#y#y#y#y#y#y#y#y#y`P#yac#y#y#y#y#y.8#c...z#F.X`2.u#yak`P#y#y#y`P#y#y`P#y`P#y#y#y#y#y#y#y#y#y#y#y#y#y#y",
"#y#y#y#y#y#y#y#y#y#y#y#y#y#y#y#y#y#y#y#y#y#y#y#y#y#yac.jac#yak`W#`ai`Y#hao#y#y#y`P#y`P#y#y#y`P`P#y`P#y#y#y#y#y#y#y#y#y#y#y#y#y#y"
};
