/* XPM */
static char *Spray-Logo-Icon-48_xpm[] = {
/* width height num_colors chars_per_pixel */
"    48    48      256            2",
/* colors */
"`` c #0c0e4c",
"`. c #7c8ea4",
"`# c #444e68",
"`a c #c4c7ca",
"`b c #242e44",
"`c c #646a7c",
"`d c #3c3e48",
"`e c #e4e7e8",
"`f c #a4aaac",
"`g c #1c3274",
"`h c #546264",
"`i c #4c4e5c",
"`j c #ccd6e4",
"`k c #6c7e94",
"`l c #9c98a0",
"`m c #2c3a44",
"`n c #e4f6fc",
"`o c #b4bac9",
"`p c #4c548f",
"`q c #3c4076",
"`r c #243e84",
"`s c #2c2f43",
"`t c #8c9ab4",
"`u c #1c1e34",
"`v c #dcd9e1",
"`w c #f4f2f3",
"`x c #d4d1d8",
"`y c #a4accc",
"`z c #848392",
"`A c #2c3061",
"`B c #848bae",
"`C c #646996",
"`D c #1c235f",
"`E c #bccaec",
"`F c #e4f0fc",
"`G c #4c5e74",
"`H c #344e94",
"`I c #6c7aac",
"`J c #444959",
"`K c #2c4294",
"`L c #1c2047",
"`M c #4c4f7a",
"`N c #9c9dc6",
"`O c #3c4878",
"`P c #dce0df",
"`Q c #eceaeb",
"`R c #2c3579",
"`S c #546297",
"`T c #445791",
"`U c #a4b2c4",
"`V c #bcbfca",
"`W c #c4cedc",
"`X c #ccd8f9",
"`Y c #f4f6f4",
"`Z c #4c5c97",
"`0 c #1c2844",
"`1 c #5c6c90",
"`2 c #2c3b60",
"`3 c #2c3654",
"`4 c #2c365f",
"`5 c #8c94b2",
"`6 c #647294",
"`7 c #8c8e90",
"`8 c #6c727c",
".` c #3c3c60",
".. c #acb3cf",
".# c #2c368c",
".a c #9ca2ac",
".b c #344884",
".c c #7c83a0",
".d c #dce1f6",
".e c #34426c",
".f c #8c92a2",
".g c #dce8fa",
".h c #b4aeb4",
".i c #2c3051",
".j c #3c468c",
".k c #bcc1d8",
".l c #f4fefc",
".m c #4c5ea8",
".n c #2c2a4d",
".o c #343b61",
".p c #ccc9ce",
".q c #7c7a80",
".r c #343f78",
".s c #c4cee4",
".t c #445291",
".u c #4c5678",
".v c #2c3a7c",
".w c #747494",
".x c #646689",
".y c #a4adc1",
".z c #343262",
".A c #2c469c",
".B c #d4def8",
".C c #545c8f",
".D c #242849",
".E c #1c2e6c",
".F c #5c565c",
".G c #eceff1",
".H c #4c4a68",
".I c #444678",
".J c #e4e2e9",
".K c #fcf9fb",
".L c #5c6ba9",
".M c #8c93bf",
".N c #3c4264",
".O c #acb4e0",
".P c #3c4e7c",
".Q c #545666",
".R c #3c4294",
".S c #94a6bc",
".T c #84859e",
".U c #242a7c",
".V c #5c5e80",
".W c #344ea4",
".X c #5466a8",
".Y c #3c569c",
".Z c #d4d9f2",
".0 c #6c7597",
".1 c #8c8ca1",
".2 c #aca6b4",
".3 c #e4e8f8",
".4 c #343152",
".5 c #243668",
".6 c #141630",
".7 c #bcc6d4",
".8 c #d4d9d8",
"#` c #44427c",
"#. c #9ca2c4",
"## c #24293a",
"#a c #7c7c9c",
"#b c #9c9cb5",
"#c c #acbee4",
"#d c #d4d2f4",
"#e c #5c6284",
"#f c #b4aecc",
"#g c #cccae4",
"#h c #b4b5c1",
"#i c #646ea7",
"#j c #7c828f",
"#k c #6c6e7c",
"#l c #242a61",
"#m c #949bbe",
"#n c #848ec4",
"#o c #3c466c",
"#p c #9ca3b6",
"#q c #7486b4",
"#r c #141840",
"#s c #9ca6dc",
"#t c #243674",
"#u c #34424c",
"#v c #6c6e89",
"#w c #445684",
"#x c #3c4254",
"#y c #ecfefc",
"#z c #dcdaef",
"#A c #eceaf7",
"#B c #7c7d92",
"#C c #6c6870",
"#D c #54526c",
"#E c #747b86",
"#F c #2c3e7a",
"#G c #fcf2fc",
"#H c #dcd2e4",
"#I c #545b81",
"#J c #747aa4",
"#K c #242244",
"#L c #545278",
"#M c #343684",
"#N c #ccced1",
"#O c #74728c",
"#P c #cccfe6",
"#Q c #344790",
"#R c #242e61",
"#S c #343660",
"#T c #54567c",
"#U c #343a7c",
"#V c #444264",
"#W c #acadb1",
"#X c #243179",
"#Y c #34323c",
"#Z c #949cb0",
"#0 c #24222c",
"#1 c #acacd0",
"#2 c #8c828c",
"#3 c #8c8cac",
"#4 c #24265c",
"#5 c #c4c9e6",
"#6 c #343e90",
"#7 c #5c6599",
"#8 c #c4c0ca",
"a` c #9495ac",
"a. c #b4b6d0",
"a# c #343a90",
"aa c #a4a6a4",
"ab c #e4e2f4",
"ac c #9494a2",
"ad c #444890",
"ae c #c4bed4",
"af c #7c769c",
"ag c #6c6a84",
"ah c #acabc2",
"ai c #444f80",
"aj c #3c529d",
"ak c #44589e",
"al c #948ea4",
"am c #b4badc",
"an c #a4a6b4",
"ao c #7c84b0",
"ap c #1c1a3c",
"aq c #3c3c54",
"ar c #4c506c",
"as c #ecf9fc",
"at c #3c4284",
"au c #f4f2fc",
"av c #2c2f6c",
"aw c #4c5a84",
"ax c #1c2254",
"ay c #4c4e84",
"az c #3c4784",
"aA c #dcdfec",
"aB c #2c3684",
"aC c #f4f8fc",
"aD c #1c2654",
"aE c #5c6e9c",
"aF c #2c3b6c",
"aG c #6473a4",
"aH c #6c748c",
"aI c #3c3e6c",
"aJ c #343c6c",
"aK c #cccadc",
"aL c #344084",
"aM c #444e9c",
"aN c #545e9c",
"aO c #242954",
"aP c #ecf0fc",
"aQ c #6c72a4",
"aR c #d4d9e4",
"aS c #a4a6c4",
"aT c #44496c",
"aU c #2c4284",
"aV c #747db4",
"aW c #ccd0dc",
"aX c #ccd2f4",
"aY c #344a9c",
"aZ c #242f6c",
"a0 c #3c4e92",
"a1 c #343652",
"a2 c #fcfefc",
"a3 c #c4c6d6",
"a4 c #8c8ebc",
"a5 c #b4bad4",
"a6 c #acb2c4",
"a7 c #2c366c",
"a8 c #b4aec4",
/* pixels */
"a2a2a2a2a2a2a2a2a2a2a2a2a2a2a2a2`Ya2a2a2.KaC.K`Q`l.G.Ka2a2a2.Ga2.K.K.K.K.K.Ka2a2a2a2a2a2a2a2a2a2",
"a2a2a2a2a2a2a2a2a2a2a2a2a2a2a2.Ka2.K.G.K`e`x`eaP`xa2.K`Ya2.Ka2a2.K#G.K.K.K#G`Ya2a2a2a2a2a2a2a2a2",
"a2a2a2a2a2a2a2a2a2a2a2a2a2a2.Ka2.Ka2a2a2.G#A.Ka2.K`Ya2a2.K`wa2.K.K.K.K.K`wa2a2.K`Qa2a2a2a2a2a2a2",
"a2a2a2a2a2a2a2a2a2a2a2a2a2a2a2a2a2a2a2a2a2`Y`Y`v`Qa2a2.p`wa2.K.K`x`v#A.K.Ka2`Q#8`P.Ka2a2a2a2a2a2",
"a2a2a2a2a2a2a2a2a2a2a2a2a2a2a2a2a2`Y.K`Y.G`a`e.Ka2.p#A.p#H#A#Gau#A`Q#A.Ka2a2a2.K`Qa2a2a2a2a2a2a2",
"a2a2a2a2a2a2a2a2a2a2a2a2a2a2a2.Ka2`Ya2a2`Y.8`w.G.h`7`Q`Q#A#G.K.K.JaCa2.Kau.KaC.Ka2a2a2a2a2a2a2a2",
"a2a2a2a2a2a2a2a2a2a2a2a2a2a2a2a2a2a2a2.Ga2`e`P#W.q`x.K#8`vae`z.q#8`e.3`xaAaC.Ka2a2a2a2a2a2a2a2a2",
"a2a2a2a2a2a2a2a2a2a2a2a2a2a2a2a2.Ka2a2`aaa`7.8a2a2.Ka2au`vaaal.F.Q#E.f.y.JaCaua2a2a2a2a2a2a2a2a2",
"a2a2a2a2a2a2a2.Ka2a2a2.Ka2.K.Ka2.GaaaW`Y#N`Pa2`w.K.Kauau.K.Kau`P#E`J`d`J.1aC.ZaKa2a2a2a2a2a2a2a2",
"a2a2a2a2a2a2a2.Ka2.K.Ka2a2.K.Ka2a2`VaRa2.G`Y.Ga2a2aC.Ka2aC.Ka2.GaP#Z.Q.o`b#vaAab#Aa2a2a2a2a2a2a2",
"a2a2a2a2a2a2a2a2a2a2a2.Ka2a2.K.Galaf`V`Ya2.l.Gas.ZaS`y#1.kaP.las.l`F`t`##T.N.H.y`xa2a2a2a2a2a2a2",
"a2a2a2a2a2a2a2a2`wa2a2aCaCa2aP#5.1ac`Pa2.GaPa3.1.x#V#Tay`M.c#c.l.gaC`X#.#IaO.i.T.Za2a2a2a2a2a2a2",
"a2a2a2a2a2a2a2a2`Ya2a2aCauaPaW#b#Naba2aC.3aA#Z#V`O#U`p.rav.e`6`X#y`F.B#m#l#S`A#aaPa2a2a2a2a2a2a2",
"a2a2a2a2a2a2a2a2a2.Ka2a2a2.Z#b`c`z.3aCaPaCa3.0aT.I#U#M`R.j.e.5#7#c`X`S`S#U`A#S#S#za2a2a2a2a2a2a2",
"a2a2a2a2a2a2a2.Ka2.g`Q.gaPa6#j`#agaP.K.Ka2..`CaI.R.R#6.RaMaL#t`2ai`1.PaJ#R#4`A.4#ba2a2a2a2a2a2a2",
"a2a2a2a2a2a2a2.KaC#N.k#p.k`5.c.Vaha2aPaCaCaK`N.Iatada#a##taBaL.5.P.u`O`D#U#l#4.D`ca2a2a2a2a2a2a2",
"a2a2a2a2a2a2a2aCa2.cam.O#7.CaG`O`5.3a2a2.KaP.y.V`O.rataLaB`R.e.r`qa7#l.ravavaD.n.Da2a2a2a2a2a2a2",
"a2a2a2a2a2a2a2aC#b#5`NaVaNaz`Tai#7#gaCaCaCa2.3.k`5aQ`1#i.C`O#S`4#l`Aav#l```Dav`A`sa2a2a2a2a2a2a2",
"a2a2a2a2a2a2a2aP#EamaoaN`p.X`T`ZaFaw`B.Ba2aCas.l.las`F`F`F.3...waiaJ`DaZat.r`LaO`ba2a2a2a2a2a2a2",
"a2a2a2a2a2a2a2ab.k#maV.L.t.L`Za0.baz`S`y.g#y.l.g.l#y#y.lasaCaCaPa.`C#S`A`Dax#l.i`sa2a2a2a2a2a2a2",
"a2a2a2a2a2a2a2`F#5#n#i#i.L#QakaYakaj`r.e`1`U`F#yas#y.l.l.laC.K.KaC.ZaQ`L#l#SaO.D`ba2a2a2a2a2a2a2",
"a2a2a2a2a2a2a2aCaS#I.C`Z.ma0aj`Haj.A`r.b.P`2`G`k`.#p.y.y.k#z#A.KaPaC.g`B.N#R.i.D.Da2a2a2a2a2a2a2",
"a2a2a2a2a2a2a2aR..`C`S.ta0.m#Q`K.A`H`Ha0`Z`2aF`2`O.b`2`4.D.iaf#d.3a2aPa5`Ba1.6.i`ba2a2a2a2a2a2a2",
"a2a2a2a2a2a2a2.fa5#c#7`ZakajajaY.Aaj#F#X.Pat`OaL#U.r`R#UaJ.z#S`M.3.Ga2.3..aT`0.4`sa2a2a2a2a2a2a2",
"a2a2a2a2a2a2a2aA.y`X`I`pa0aj`K.Y#Q.E`Z#7.r.rat#M#6#M#X.vataJ#4.D#WaCaP.la5#v`s`uaca2a2a2a2a2a2a2",
"a2a2a2a2a2a2a2`F#B#.aGaN#Qa0.t`g#Fao`X.g.M#`.Ia#.Ua##6#X#laZ.o`i#W.la2#A.kac.6.Qa3a2a2a2a2a2a2a2",
"a2a2a2a2a2a2a2aCa3aX.O#s.L.jak.taw`E.laC.Z.x.zaL#U.v#X.E`R`4`b`0`fa2aCa2`o#j`bacasa2a2a2a2a2a2a2",
"a2a2a2a2a2a2a2a2a2.dao#i.C.vaLaL`M..aC.3aP..#LaI#U#U.v.N`2`0`m`h.Ga2aCaCan`8`daRa2a2a2a2a2a2a2a2",
"a2a2a2a2a2a2a2a2aPaP#b#J`p.t`p.b`M.0.Ba2a2.l#5.w.o`3`3`3`b#x#E`Va2.K.KaC#k.Q#haC.Ka2a2a2a2a2a2a2",
"a2a2a2a2a2a2a2.K.K.3..`NaQ`CaVayaJ#o#Za2as.Ja2aP`W`o#p#p`oaR`wa2.K#Aa2`z##aaaCa2.Ka2a2a2a2a2a2a2",
"a2a2a2a2a2a2a2.Kauab#g`ya4#T.M#naiaJ#SaS#Aa2aCa2.la2.laCaCa2.K#G.K.K`z#0`z.3aCaC.Ka2a2a2a2a2a2a2",
"a2a2a2a2a2a2a2a2a2.K.3am#A`Na4.Cavay.u#e.c.3.Ga2.laCaC.Ka2.K.K.K#H#C#Y`la2.Ka2.K.la2a2a2a2a2a2a2",
"a2a2a2a2a2a2a2a2a2a2.K.Kau#1#1#3.`ar#1#b#b.Q#E#5.3auaPaP#AaP#h.K`z`i#8aua2.K.Ga2a2a2a2a2a2a2a2a2",
"a2a2a2a2a2a2a2a2a2.K.K.K.KaeaKae#Ba`aW.l`oaH`b#SaT`M#I#e#V##`d`P#8#h#A.K.K.Ga2a2a2a2a2a2a2a2a2a2",
"a2a2a2a2a2a2a2a2a2.K.K.K.KaK#zaA`z`z#AaP.3#B#I`0.i`A.naO###Y#E`w.Ka2.Ka2aC`wa2`wa2a2a2a2a2a2a2a2",
"a2a2a2a2a2a2a2a2a2a2a2a2a2`v#A#Aan#fa2a2aC`o`5#D#r.i.o.n.4.T`ea2aC.KaP`waua2.Ka2a2a2a2a2a2a2a2a2",
"a2a2a2a2a2a2a2a2.Ka2a2.K.Kau.K.KauaCasaPaP.l#5.c.N#4.i#K#Va3a2`W.paC.Ka2a2a2`Ya2a2a2a2a2a2a2a2a2",
"a2a2a2a2a2a2a2a2a2a2`Y`e`eaCa2.Ka2aC`e#haCaCas`5.``L.n#SaHaC.G.q#C#N.J.K.K#Aa2a2a2a2a2a2a2a2a2a2",
"a2a2a2a2a2a2a2a2a2a2.K`e`Q`w.K.K.Ka2a2`eaC.l.3#a.o.z.i.nagaCa2`e#8a2a2a2a2`Ya2a2a2a2a2a2a2a2a2a2",
"a2a2a2a2a2a2a2a2.Ka2a2a2a2a2a2a2a2`Ya2aCaCa2aC#3.N.4#r.i#3.K#Aa2a2#A.J`v`wa2`wa2a2a2a2a2a2a2a2a2",
"a2a2a2a2a2a2a2a2a2a2a2a2a2a2a2a2.Ka2.la2.l.la2...x`L.zap#3au.Ka2.K`Q.J`e`Ya2a2a2a2a2a2a2a2a2a2a2",
"a2a2a2a2a2a2a2a2a2a2a2a2a2a2a2a2a2a2`Y.8.8aPaCah#J`u.n.z#faCa2.Ka2a2`Y.K.Ka2a2a2a2a2a2a2a2a2a2a2",
"a2a2a2a2a2a2a2a2a2a2a2a2a2a2a2a2a2a2`Y`e`P.Ga2.k.T.n.Dar#P.Ka2.K.Ka2a2.K.G`Q`wa2a2a2a2a2a2a2a2a2",
"a2a2a2a2a2a2a2a2a2a2a2a2a2a2a2a2a2a2a2.K.l.l.K`o`5.4#K.4a8aC.Ka2.Ka2a2a2`w`w`Ya2a2a2a2a2a2a2a2a2",
"a2a2a2a2a2a2a2a2a2a2a2a2a2a2a2a2a2a2a2`Y`Ya2.lal#Z.n.na1aWa2.Ka2a2a2a2a2a2.Ka2a2a2a2a2a2a2a2a2a2",
"a2a2a2a2a2a2a2a2a2a2a2a2a2a2a2a2.K`Q`Q`Ya2a2aC`5#b#K.i.H.K.Ka2a2a2.K.K.Ka2a2.K.Ka2a2a2a2a2a2a2a2",
"a2a2a2a2a2a2a2a2a2a2a2a2a2a2a2a2a2`Q`ea2a2`YaC.k#b.`ap#D#A.3a2a2a2a2a2a2a2a2a2a2a2a2a2a2a2a2a2a2",
"a2a2a2a2a2a2a2a2a2a2a2a2a2a2a2.Ka2a2a2a2.Gasa2#z.T#v.4.1aP.Ka2`Ya2.Ka2a2.K.Ka2a2a2a2a2a2a2a2a2a2"
};
